<svg width="236" height="30" viewBox="0 0 236 30" fill="none" xmlns="http://www.w3.org/2000/svg">
<path d="M12.461 15.3785C12.0238 11.4796 16.1987 8.34804 21.7771 8.39643C27.3554 8.43791 32.2426 11.6317 32.6798 15.5306C33.1171 19.4364 28.9492 22.561 23.3638 22.5126C17.7784 22.478 12.8983 19.2774 12.461 15.3785ZM33.7165 16.5951C33.2158 11.7561 27.5952 7.79501 21.1706 7.73971C14.7389 7.69132 9.94339 11.5695 10.4441 16.4085C10.9448 21.2475 16.5654 25.2086 22.99 25.257C29.4217 25.3054 34.2172 21.4342 33.7095 16.5951" fill="#F8B986"/>
<path d="M24.0194 25.347C20.8529 28.596 15.7753 28.8587 12.6723 25.9484C9.56935 23.038 9.62576 18.0538 12.7922 14.8117C15.9587 11.5695 21.0363 11.2999 24.1393 14.2103C27.2352 17.1206 27.1859 22.1117 24.0194 25.347ZM12.2915 14.7149C8.61024 18.4755 8.55382 24.2755 12.1575 27.6559C15.7612 31.0363 21.671 30.7252 25.3452 26.9507C29.0265 23.1901 29.09 17.3902 25.4792 14.0098C21.8755 10.6294 15.9728 10.9404 12.2915 14.708" fill="#F39B56"/>
<path d="M12.6306 2.58282C19.2174 0.170214 25.7196 2.61047 27.1724 8.04402C28.6181 13.4845 24.4572 19.8513 17.8705 22.2639C11.2907 24.6834 4.77443 22.2362 3.32872 16.8027C1.87596 11.3691 6.04384 5.00234 12.6306 2.58282ZM6.51634 4.6567C-0.317284 9.9589 -2.05214 17.6392 2.63055 21.8146C7.32029 25.99 16.6504 25.0705 23.484 19.7683C30.3106 14.473 32.0525 6.79279 27.3698 2.61739C22.6801 -1.5511 13.35 -0.645509 6.52339 4.6567" fill="#EC6A06"/>
<path d="M55.2191 6.03955V24.027H51.7635V14.7775H41.8199V24.027H38.3643V6.03955H41.8199V11.9224H51.7635V6.03955H55.2191Z" fill="white"/>
<path d="M61.524 24.0269C60.1699 24.0269 59.0768 23.6398 58.2517 22.8586C57.4266 22.0774 57.0176 21.1165 57.0176 19.9759V18.9943C57.0176 17.8467 57.4266 16.8789 58.2517 16.0909C59.0768 15.2959 60.1276 14.9018 61.4041 14.9018H68.5974V14.8534C68.5974 13.7405 67.8075 13.1805 66.2419 13.1805H58.1177V10.3877H66.5663C68.3082 10.3877 69.6623 10.837 70.6284 11.7357C71.5805 12.6206 72.053 13.8234 72.053 15.3512V20.0865C72.053 21.2755 71.6157 22.2434 70.7483 22.9899C69.9373 23.6743 68.8371 24.02 67.4337 24.02H61.524V24.0269ZM66.5663 17.6877H62.4549C61.129 17.6877 60.4732 18.1993 60.4732 19.2224V19.6994C60.4732 20.7087 61.1361 21.2133 62.4549 21.2133H66.5663C67.9203 21.2133 68.5974 20.7087 68.5974 19.6994V19.2224C68.5974 18.1993 67.9203 17.6877 66.5663 17.6877Z" fill="white"/>
<path d="M79.8451 10.3877H82.7154C84.5349 10.3877 85.9735 10.9062 87.0314 11.9431C88.0751 12.9939 88.597 14.4318 88.597 16.2429V24.0269H85.1414V16.478C85.1414 15.365 84.9368 14.57 84.5349 14.0999C84.0553 13.5193 83.3289 13.2289 82.3628 13.2289H80.1413C79.2245 13.2289 78.5122 13.5193 78.0186 14.0999C77.6448 14.57 77.4615 15.365 77.4615 16.478V24.0269H74.0059V16.2429C74.0059 14.4318 74.5277 12.9939 75.5715 11.9431C76.6293 10.9062 78.0538 10.3877 79.8451 10.3877Z" fill="white"/>
<path d="M101.185 22.3817C100.233 23.4808 99.0134 24.027 97.5183 24.027H95.6988C94.0627 24.027 92.751 23.5154 91.7495 22.4923C90.8469 21.5452 90.3955 20.2249 90.3955 18.5312V10.3809H93.8299V18.4621C93.8299 19.423 94.0274 20.1073 94.4153 20.5221C94.8384 20.9645 95.3956 21.1857 96.0937 21.1857H97.1657C97.885 21.1857 98.4492 20.9645 98.8723 20.5221C99.2743 20.1073 99.4788 19.423 99.4788 18.4621V10.3809H102.885V18.4621C102.885 19.423 103.082 20.1073 103.47 20.5221C103.893 20.9645 104.451 21.1857 105.149 21.1857H106.221C106.933 21.1857 107.504 20.9645 107.927 20.5221C108.329 20.1073 108.534 19.423 108.534 18.4621V10.3809H111.968V18.5312C111.968 20.2249 111.503 21.5452 110.565 22.4923C109.556 23.5154 108.231 24.027 106.595 24.027H104.775C103.329 24.027 102.13 23.4808 101.178 22.3817H101.185Z" fill="white"/>
<path d="M119.938 13.229C119.021 13.229 118.309 13.5194 117.815 14.1001C117.442 14.5701 117.258 15.3651 117.258 16.4781V24.027H113.803V5.99121H117.258V11.0031C117.942 10.5883 118.739 10.3809 119.642 10.3809H122.512C124.332 10.3809 125.77 10.8994 126.828 11.9363C127.872 12.9871 128.394 14.425 128.394 16.2361V24.0201H124.938V16.4712C124.938 15.3582 124.734 14.5632 124.332 14.0931C123.852 13.5125 123.126 13.2221 122.16 13.2221H119.938V13.229Z" fill="white"/>
<path d="M134.55 24.0269C133.196 24.0269 132.103 23.6398 131.285 22.8586C130.46 22.0774 130.051 21.1165 130.051 19.9759V18.9943C130.051 17.8467 130.46 16.8789 131.285 16.0909C132.11 15.2959 133.161 14.9018 134.437 14.9018H141.631V14.8534C141.631 13.7405 140.841 13.1805 139.275 13.1805H131.151V10.3877H139.6C141.341 10.3877 142.695 10.837 143.662 11.7357C144.614 12.6206 145.086 13.8234 145.086 15.3512V20.0865C145.086 21.2755 144.649 22.2434 143.782 22.9899C142.97 23.6743 141.863 24.02 140.467 24.02H134.557L134.55 24.0269ZM139.592 17.6877H135.481C134.155 17.6877 133.499 18.1993 133.499 19.2224V19.6994C133.499 20.7087 134.162 21.2133 135.481 21.2133H139.592C140.946 21.2133 141.624 20.7087 141.624 19.6994V19.2224C141.624 18.1993 140.946 17.6877 139.592 17.6877Z" fill="white"/>
<path d="M162.73 24.0962C162.343 24.0962 161.976 23.9925 161.644 23.7989C161.313 23.5984 161.024 23.2873 160.791 22.8587L152.575 6.03271H156.285L162.73 19.2848L169.176 6.03271H172.886L164.67 22.8587C164.451 23.2873 164.169 23.5984 163.831 23.7989C163.485 23.9994 163.125 24.0962 162.73 24.0962Z" fill="white"/>
<path d="M178.675 7.85073C178.675 8.41759 178.464 8.88075 178.048 9.23331C177.625 9.59279 177.103 9.77252 176.482 9.77252C175.862 9.77252 175.368 9.59279 174.966 9.23331C174.564 8.87384 174.359 8.41068 174.359 7.85073C174.359 7.29078 174.564 6.84144 174.966 6.46815C175.368 6.09485 175.876 5.9082 176.482 5.9082C177.089 5.9082 177.625 6.09486 178.048 6.45433C178.471 6.82071 178.675 7.28387 178.675 7.85073ZM174.754 24.0339V10.4431H178.259V24.0339H174.754Z" fill="white"/>
<path d="M190.333 15.8144C191.814 15.8144 192.921 16.0633 193.668 16.5679C194.634 17.1901 195.114 18.151 195.114 19.4299V20.4599C195.114 21.725 194.634 22.672 193.668 23.2942C192.907 23.785 191.729 24.027 190.142 24.027H180.876V21.1927H189.909C191.059 21.1927 191.637 20.8608 191.637 20.2041V19.6303C191.637 18.9598 191.08 18.6211 189.959 18.6211H185.311C183.866 18.6211 182.751 18.3791 181.976 17.8883C181.045 17.2592 180.572 16.3191 180.572 15.0471V13.9963C180.572 12.6967 181.038 11.7427 181.976 11.1344C182.737 10.6297 183.901 10.3809 185.452 10.3809H194.373V13.2221H185.756C184.62 13.2221 184.049 13.5608 184.049 14.2314V14.8259C184.049 15.4826 184.592 15.8075 185.685 15.8075H190.333V15.8144Z" fill="white"/>
<path d="M201.349 7.85073C201.349 8.41759 201.138 8.88075 200.722 9.23331C200.298 9.59279 199.777 9.77252 199.156 9.77252C198.535 9.77252 198.042 9.59279 197.64 9.23331C197.238 8.87384 197.033 8.41068 197.033 7.85073C197.033 7.29078 197.238 6.84144 197.64 6.46815C198.042 6.09485 198.549 5.9082 199.156 5.9082C199.762 5.9082 200.298 6.09486 200.722 6.45433C201.145 6.82071 201.349 7.28387 201.349 7.85073ZM197.428 24.0339V10.4431H200.933V24.0339H197.428Z" fill="white"/>
<path d="M213.14 24.0269H209.007C207.23 24.0131 205.841 23.5084 204.825 22.5199C203.831 21.559 203.33 20.211 203.33 18.4689V15.9733C203.33 14.2175 203.831 12.8625 204.825 11.9016C205.834 10.9131 207.23 10.4084 209.007 10.3877H213.14C214.931 10.4015 216.327 10.9062 217.343 11.9016C218.337 12.8625 218.838 14.2175 218.838 15.9733V18.4689C218.838 20.204 218.337 21.559 217.343 22.5199C216.334 23.5084 214.931 24.0131 213.14 24.0269ZM212.815 21.1926C213.767 21.1926 214.444 20.9299 214.846 20.4114C215.206 19.9413 215.382 19.2293 215.382 18.2823V16.1738C215.382 15.2129 215.206 14.494 214.846 14.0239C214.444 13.4916 213.767 13.222 212.815 13.222H209.31C208.379 13.222 207.71 13.4916 207.3 14.0239C206.955 14.4801 206.786 15.1991 206.786 16.1738V18.2823C206.786 19.2432 206.955 19.9552 207.3 20.4114C207.702 20.9299 208.372 21.1926 209.31 21.1926H212.815Z" fill="white"/>
<path d="M226.962 10.3877H229.833C231.652 10.3877 233.091 10.9062 234.149 11.9431C235.192 12.9939 235.714 14.4318 235.714 16.2429V24.0269H232.259V16.478C232.259 15.365 232.054 14.57 231.652 14.0999C231.172 13.5193 230.446 13.2289 229.48 13.2289H227.258C226.342 13.2289 225.629 13.5193 225.136 14.0999C224.762 14.57 224.579 15.365 224.579 16.478V24.0269H221.123V16.2429C221.123 14.4318 221.645 12.9939 222.689 11.9431C223.746 10.9062 225.171 10.3877 226.962 10.3877Z" fill="white"/>
</svg>
