<svg width="14" height="16" viewBox="0 0 14 16" fill="none" xmlns="http://www.w3.org/2000/svg">
<path d="M12.2913 13.9202H10.8562V10.7615C10.8562 9.70113 10.4201 8.71034 9.66473 8.00001C10.4222 7.28967 10.8562 6.29887 10.8562 5.23848V2.07983H12.2913C12.8665 2.07983 13.3312 1.61311 13.3312 1.03992C13.3312 0.466739 12.8645 0 12.2913 0H1.03996C0.464701 0 0 0.466739 0 1.03992C0 1.61311 0.466748 2.07983 1.03996 2.07983H2.47503V5.23848C2.47503 6.29887 2.91109 7.28967 3.6665 8.00001C2.91109 8.71034 2.47503 9.70113 2.47503 10.7615V13.9202H1.03996C0.464701 13.9202 0 14.3869 0 14.9601C0 15.5333 0.466748 16 1.03996 16H12.2913C12.8665 16 13.3312 15.5333 13.3312 14.9601C13.3312 14.3869 12.8645 13.9202 12.2913 13.9202ZM9.81419 13.9202H3.51501V10.7615C3.51501 9.81781 3.992 8.94984 4.7904 8.43807L5.47416 8.00001L4.7904 7.56193C3.992 7.05016 3.51501 6.18219 3.51501 5.23848V2.07983H9.81419V5.23848C9.81419 6.18219 9.33718 7.05016 8.53878 7.56193L7.85503 8.00001L8.53878 8.43807C9.33718 8.94984 9.81419 9.81781 9.81419 10.7615V13.9202Z" fill="white"/>
</svg>
