<svg width="24" height="24" viewBox="0 0 24 24" fill="none" xmlns="http://www.w3.org/2000/svg">
<path d="M17.4621 0.225501L9.31523 6.85933H3.78516C2.14223 6.85933 0.809814 8.19173 0.809814 9.83466V12.4063C0.809814 13.9956 2.05754 15.2913 3.62425 15.3732V21.9167C3.62425 23.0684 4.55863 24 5.70755 24C6.85648 24 7.79086 23.0656 7.79086 21.9167V15.3817H9.31241L17.4593 22.0155C18.1199 22.5519 19.1051 22.0833 19.1051 21.2336V1.01026C19.1051 0.160565 18.117 -0.308026 17.4593 0.228326L17.4621 0.225501Z" fill="#A5A8BA"/>
<path d="M20.5167 8.44556V13.795C21.9931 13.795 23.19 12.598 23.19 11.1217C23.19 9.64529 21.9931 8.44838 20.5167 8.44838V8.44556Z" fill="#A5A8BA"/>
</svg>
