<svg width="24" height="24" viewBox="0 0 24 24" fill="none" xmlns="http://www.w3.org/2000/svg">
<path d="M17.5939 9.21631C15.4172 9.21631 13.6499 11.0994 13.6499 13.4115C13.6499 15.7237 15.42 17.6068 17.5939 17.6068C19.7677 17.6068 21.5378 15.7237 21.5378 13.4115C21.5378 11.0994 19.7677 9.21631 17.5939 9.21631Z" fill="#A5A8BA"/>
<path d="M20.4908 17.3101C19.6947 17.9904 18.6896 18.3998 17.5942 18.3998C16.4989 18.3998 15.4938 17.9904 14.6977 17.3101C12.6142 18.3687 11.1885 20.5285 11.1885 23.0241H24C24 20.5285 22.5715 18.3687 20.4908 17.3101Z" fill="#A5A8BA"/>
<path d="M1.86047 7.53945H18.9943V8.57838C19.7001 8.80423 20.3353 9.20229 20.8632 9.71893V3.64631C20.8632 3.12967 20.4454 2.71182 19.9287 2.71182H18.1276V1.85359C18.1276 1.368 17.7351 0.975586 17.2496 0.975586C16.764 0.975586 16.3716 1.368 16.3716 1.85359V2.71182H13.5823V1.85359C13.5823 1.368 13.1899 0.975586 12.7043 0.975586C12.2187 0.975586 11.8262 1.368 11.8262 1.85359V2.71182H9.03696V1.85359C9.03696 1.368 8.64454 0.975586 8.15896 0.975586C7.67337 0.975586 7.28095 1.368 7.28095 1.85359V2.71182H4.49166V1.85359C4.49166 1.368 4.09925 0.975586 3.61366 0.975586C3.12808 0.975586 2.73565 1.368 2.73565 1.85359V2.71182H0.934468C0.417828 2.71182 0 3.12967 0 3.64631V20.7801C0 21.2967 0.417828 21.7146 0.934468 21.7146H10.457C10.5756 21.0596 10.7817 20.4329 11.0668 19.8456H1.86894V7.53945H1.86047Z" fill="#A5A8BA"/>
</svg>
