<svg width="24" height="24" viewBox="0 0 24 24" fill="none" xmlns="http://www.w3.org/2000/svg">
<path d="M20.6584 18.9962H11.5116C10.7101 18.9962 10.0582 19.6453 10.0582 20.4496C10.0582 21.254 10.7073 21.9031 11.5116 21.9031H13.126V22.2051C13.126 23.1956 13.9303 24 14.9209 24H17.2492C18.2398 24 19.0441 23.1956 19.0441 22.2051V21.9031H20.6584C21.4599 21.9031 22.1118 21.254 22.1118 20.4496C22.1118 19.6453 21.4627 18.9962 20.6584 18.9962Z" fill="#A5A8BA"/>
<path d="M14.65 8.22953V6.31326C14.65 4.51552 13.1938 3.05927 11.396 3.05927H3.25399C1.45625 3.05927 0 4.51552 0 6.31326V8.22953C0 9.99058 1.40263 11.4243 3.14957 11.4779V14.3227L5.9887 11.4835H11.3932C13.191 11.4835 14.6472 10.0273 14.6472 8.22953H14.65ZM4.08089 8.22953C3.53056 8.22953 3.08184 7.78363 3.08184 7.23047C3.08184 6.67732 3.52774 6.23141 4.08089 6.23141C4.63404 6.23141 5.07996 6.67732 5.07996 7.23047C5.07996 7.78363 4.63404 8.22953 4.08089 8.22953ZM7.32642 8.22953C6.77609 8.22953 6.32737 7.78363 6.32737 7.23047C6.32737 6.67732 6.77327 6.23141 7.32642 6.23141C7.87957 6.23141 8.32549 6.67732 8.32549 7.23047C8.32549 7.78363 7.87957 8.22953 7.32642 8.22953ZM10.5719 8.22953C10.0216 8.22953 9.57289 7.78363 9.57289 7.23047C9.57289 6.67732 10.0188 6.23141 10.5719 6.23141C11.1251 6.23141 11.571 6.67732 11.571 7.23047C11.571 7.78363 11.1251 8.22953 10.5719 8.22953Z" fill="#A5A8BA"/>
<path d="M20.7178 15.3443V14.0828C22.7159 12.6124 23.8928 10.3123 23.8928 7.8062C23.8928 3.50235 20.3904 0 16.0866 0C14.1252 0 12.3302 0.730948 10.9558 1.93038H11.3989C12.3303 1.93038 13.191 2.22389 13.9022 2.7206C14.5739 2.42991 15.3105 2.26905 16.0866 2.26905C19.1402 2.26905 21.6237 4.75258 21.6237 7.8062C21.6237 9.73376 20.6388 11.4948 18.9878 12.5136L18.4488 12.8466V15.3387H13.7244V12.8466L13.1854 12.5136C13.0922 12.4572 13.0019 12.3951 12.9144 12.333C12.4403 12.508 11.9323 12.6096 11.3961 12.6096H9.93701C10.3688 13.1599 10.8768 13.6566 11.4525 14.0799V15.3415C10.6793 15.3725 10.0584 16.0047 10.0584 16.7893C10.0584 17.5738 10.7075 18.2427 11.5118 18.2427H20.6586C21.4601 18.2427 22.112 17.5936 22.112 16.7893C22.112 15.9849 21.4939 15.3753 20.7178 15.3415V15.3443Z" fill="#A5A8BA"/>
</svg>
