<svg width="24" height="24" viewBox="0 0 24 24" fill="none" xmlns="http://www.w3.org/2000/svg">
<path d="M6.2744 12.0269C5.94416 12.0269 5.67603 12.295 5.67603 12.6252V15.6087H8.26711V12.6252C8.26711 12.295 7.99897 12.0269 7.66873 12.0269H6.27723H6.2744Z" fill="#A5A8BA"/>
<path d="M11.2193 8.14844C10.8891 8.14844 10.621 8.41658 10.621 8.74682V15.6084H13.2121V8.74682C13.2121 8.41658 12.9439 8.14844 12.6137 8.14844H11.2222H11.2193Z" fill="#A5A8BA"/>
<path d="M21.5867 5.06645H18.1545V3.95437H19.6335C19.8734 3.95437 20.0879 3.81042 20.1811 3.59026C20.2714 3.3701 20.2234 3.11608 20.0541 2.94672L17.2795 0.172175C17.1694 0.0620959 17.017 0 16.8618 0C16.7065 0 16.5541 0.0620959 16.444 0.172175L13.6695 2.94672C13.5001 3.11608 13.4493 3.3701 13.5425 3.59026C13.6328 3.81042 13.8501 3.95437 14.09 3.95437H15.5691V15.6086H18.1601V6.67529H20.7879V16.6642H3.212V6.67529H14.7449V5.06645H2.40758C1.96444 5.06645 1.60315 5.42773 1.60315 5.87087V19.7521C1.60315 20.1952 1.96444 20.5565 2.40758 20.5565H8.6482V22.3912H7.2708C6.82766 22.3912 6.46638 22.7524 6.46638 23.1956C6.46638 23.6387 6.82766 24 7.2708 24H16.7291C17.1722 24 17.5335 23.6387 17.5335 23.1956C17.5335 22.7524 17.1722 22.3912 16.7291 22.3912H15.3517V20.5565H21.5923C22.0355 20.5565 22.3968 20.1952 22.3968 19.7521V5.87087C22.3968 5.42773 22.0355 5.06645 21.5923 5.06645H21.5867ZM13.7372 22.3912H10.2514V20.5565H13.7372V22.3912Z" fill="#A5A8BA"/>
</svg>
