<svg width="24" height="24" viewBox="0 0 24 24" fill="none" xmlns="http://www.w3.org/2000/svg">
<path d="M22.8055 12.7001C22.8055 6.54545 17.8164 1.55347 11.6589 1.55347C5.50149 1.55347 0.512329 6.54263 0.512329 12.7001C0.512329 15.8522 1.82169 18.6938 3.92403 20.7228C3.90992 20.7397 3.89298 20.7567 3.88169 20.7764L2.75292 22.5006C2.45944 22.9493 2.58362 23.5504 3.03231 23.841C3.48099 24.1345 4.08206 24.0103 4.37272 23.5617L5.43094 21.9475C7.20875 23.1468 9.35059 23.8467 11.6561 23.8467C13.9616 23.8467 16.1035 23.1468 17.8813 21.9475L18.9395 23.5617C19.233 24.0103 19.834 24.1345 20.2799 23.841C20.7286 23.5475 20.8528 22.9465 20.5593 22.5006L19.4305 20.7764C19.4164 20.7567 19.4023 20.7426 19.3882 20.7228C21.4905 18.6967 22.7999 15.8522 22.7999 12.7001H22.8055ZM2.71343 12.7001C2.71343 7.75888 6.72055 3.75175 11.6617 3.75175C16.6029 3.75175 20.6101 7.75888 20.6101 12.7001C20.6101 17.6413 16.6029 21.6484 11.6617 21.6484C6.72055 21.6484 2.71343 17.6413 2.71343 12.7001Z" fill="#A5A8BA"/>
<path d="M4.63516 12.0934C4.29935 12.0934 4.02844 12.3643 4.02844 12.7001C4.02844 13.0359 4.29935 13.3068 4.63516 13.3068C4.97097 13.3068 5.24187 13.0359 5.24187 12.7001C5.24187 12.3643 4.97097 12.0934 4.63516 12.0934Z" fill="#A5A8BA"/>
<path d="M18.6883 13.3068C19.0241 13.3068 19.295 13.0359 19.295 12.7001C19.295 12.3643 19.0241 12.0934 18.6883 12.0934C18.3525 12.0934 18.0815 12.3643 18.0815 12.7001C18.0815 13.0359 18.3525 13.3068 18.6883 13.3068Z" fill="#A5A8BA"/>
<path d="M11.6615 6.2802C11.9973 6.2802 12.2682 6.00929 12.2682 5.67348C12.2682 5.33768 11.9973 5.06677 11.6615 5.06677C11.3257 5.06677 11.0548 5.33768 11.0548 5.67348C11.0548 6.00929 11.3257 6.2802 11.6615 6.2802Z" fill="#A5A8BA"/>
<path d="M11.6615 19.12C11.3257 19.12 11.0548 19.3909 11.0548 19.7267C11.0548 20.0625 11.3257 20.3334 11.6615 20.3334C11.9973 20.3334 12.2682 20.0625 12.2682 19.7267C12.2682 19.3909 11.9973 19.12 11.6615 19.12Z" fill="#A5A8BA"/>
<path d="M5.998 1.02859C4.62654 -0.342864 2.40287 -0.342864 1.02859 1.02859C-0.342864 2.40005 -0.342864 4.62373 1.02859 5.998L5.998 1.02859Z" fill="#A5A8BA"/>
<path d="M22.2917 1.02859C20.9202 -0.342864 18.6965 -0.342864 17.3223 1.02859L22.2917 5.998C23.6631 4.62655 23.6631 2.40287 22.2917 1.02859Z" fill="#A5A8BA"/>
<path d="M12.7086 7.49084H10.6147C10.2394 7.49084 9.95437 7.82665 10.0165 8.19633L11.0634 14.54C11.1763 15.2173 12.147 15.2173 12.2599 14.54L13.3068 8.19633C13.3689 7.82665 13.0839 7.49084 12.7086 7.49084Z" fill="#A5A8BA"/>
<path d="M11.6615 15.7393C11.0633 15.7393 10.5751 16.2246 10.5751 16.8257C10.5751 17.4268 11.0604 17.9121 11.6615 17.9121C12.2626 17.9121 12.748 17.4268 12.748 16.8257C12.748 16.2246 12.2626 15.7393 11.6615 15.7393Z" fill="#A5A8BA"/>
</svg>
