<svg width="24" height="24" viewBox="0 0 24 24" fill="none" xmlns="http://www.w3.org/2000/svg">
<path d="M5.37295 11.547C5.37295 11.1858 5.07947 10.8923 4.71827 10.8923C4.35708 10.8923 4.0636 11.1858 4.0636 11.547C4.0636 11.9082 4.35708 12.2017 4.71827 12.2017C5.07947 12.2017 5.37295 11.9082 5.37295 11.547Z" fill="#A5A8BA"/>
<path d="M20.848 11.547C20.848 11.1858 20.5546 10.8923 20.1934 10.8923C19.8322 10.8923 19.5387 11.1858 19.5387 11.547C19.5387 11.9082 19.8322 12.2017 20.1934 12.2017C20.5546 12.2017 20.848 11.9082 20.848 11.547Z" fill="#A5A8BA"/>
<path d="M12.4558 4.46413C12.8174 4.46413 13.1105 4.17102 13.1105 3.80946C13.1105 3.44789 12.8174 3.15479 12.4558 3.15479C12.0943 3.15479 11.8011 3.44789 11.8011 3.80946C11.8011 4.17102 12.0943 4.46413 12.4558 4.46413Z" fill="#A5A8BA"/>
<path d="M12.4558 19.9392C12.8174 19.9392 13.1105 19.6461 13.1105 19.2846C13.1105 18.923 12.8174 18.6299 12.4558 18.6299C12.0943 18.6299 11.8011 18.923 11.8011 19.2846C11.8011 19.6461 12.0943 19.9392 12.4558 19.9392Z" fill="#A5A8BA"/>
<path d="M11.5331 10.616C11.2932 10.853 11.1437 11.1832 11.1437 11.5472C11.1437 12.2696 11.7306 12.8565 12.453 12.8565C12.5687 12.8565 12.6816 12.8368 12.7888 12.8086L15.5543 15.574C15.811 15.8308 16.2259 15.8308 16.4798 15.574C16.7366 15.3172 16.7366 14.9024 16.4798 14.6484L13.7144 11.883C13.7426 11.7758 13.7624 11.6657 13.7624 11.5472C13.7624 11.1832 13.6128 10.853 13.373 10.616V8.8777C13.373 8.36976 12.961 7.95776 12.453 7.95776C11.9451 7.95776 11.5331 8.36976 11.5331 8.8777V10.616Z" fill="#A5A8BA"/>
<path d="M5.20636 13.5874C2.33087 13.5874 0 15.9183 0 18.7938C0 21.6692 2.33087 24.0001 5.20636 24.0001C8.08184 24.0001 10.4127 21.6692 10.4127 18.7938C10.4127 15.9183 8.08184 13.5874 5.20636 13.5874ZM8.37814 18.5313L5.05962 21.8498C4.88749 22.022 4.66174 22.1066 4.43881 22.1066C4.21588 22.1066 3.99013 22.022 3.81799 21.8498L1.84833 19.8802C1.50406 19.5359 1.50406 18.98 1.84833 18.6386C2.1926 18.2943 2.74851 18.2943 3.09278 18.6386L4.43881 19.9846L7.13369 17.2897C7.47796 16.9454 8.03387 16.9454 8.37814 17.2897C8.72241 17.634 8.72241 18.1899 8.37814 18.5341V18.5313Z" fill="#A5A8BA"/>
<path d="M12.4558 0.00282463C6.08115 0.00282463 0.914307 5.16967 0.914307 11.5443C0.914307 12.3654 1.00178 13.164 1.16262 13.9344C1.73546 13.4575 2.39297 13.0794 3.10972 12.8282C3.05329 12.4078 3.01942 11.9817 3.01942 11.5443C3.01942 6.33228 7.24376 2.11076 12.4529 2.11076C17.6621 2.11076 21.8865 6.3351 21.8865 11.5443C21.8865 16.7535 17.6621 20.9778 12.4529 20.9778C12.0184 20.9778 11.5894 20.9468 11.169 20.8875C10.9178 21.6042 10.5397 22.2618 10.0628 22.8346C10.8332 22.9983 11.6346 23.0829 12.4529 23.0829C18.8275 23.0829 23.9944 17.9161 23.9944 11.5415C23.9944 5.16685 18.8275 0 12.4529 0L12.4558 0.00282463Z" fill="#A5A8BA"/>
</svg>
