<svg width="24" height="24" viewBox="0 0 24 24" fill="none" xmlns="http://www.w3.org/2000/svg">
<path d="M17.6311 13.0239H13.6621C13.287 13.0239 12.9823 13.3286 12.9823 13.7038C12.9823 14.0789 13.287 14.3836 13.6621 14.3836H17.6311C18.0063 14.3836 18.311 14.0789 18.311 13.7038C18.311 13.3286 18.0063 13.0239 17.6311 13.0239Z" fill="#A5A8BA"/>
<path d="M9.74438 10.3107C9.74438 10.6859 10.049 10.9905 10.4242 10.9905H17.6344C18.0096 10.9905 18.3142 10.6859 18.3142 10.3107C18.3142 9.93551 18.0096 9.63086 17.6344 9.63086H10.4242C10.049 9.63086 9.74438 9.93551 9.74438 10.3107Z" fill="#A5A8BA"/>
<path d="M17.6313 7.59649C18.0065 7.59649 18.3111 7.29184 18.3111 6.91666C18.3111 6.54148 18.0065 6.23682 17.6313 6.23682H13.4225C13.0473 6.23682 12.7427 6.54148 12.7427 6.91666C12.7427 7.29184 13.0473 7.59649 13.4225 7.59649H17.6313Z" fill="#A5A8BA"/>
<path d="M21.9756 0.00564729H10.836C10.836 0.00564729 10.8303 0.00564729 10.8275 0.00564729C10.7795 0.00564729 10.7344 0.0112856 10.6864 0.0197483C10.6667 0.0225692 10.6469 0.0310312 10.6272 0.0366729C10.599 0.0451356 10.5708 0.0507678 10.5454 0.0620513C10.5228 0.070514 10.5003 0.0846343 10.4805 0.0959178C10.458 0.107201 10.4354 0.118469 10.4128 0.132574C10.3705 0.160782 10.331 0.19182 10.2943 0.228491L5.53268 4.99016C5.49883 5.02401 5.47062 5.05785 5.44523 5.09453C5.43677 5.10581 5.43113 5.11709 5.42548 5.12838C5.40856 5.15658 5.39163 5.18761 5.37753 5.21582C5.37189 5.22711 5.36624 5.23839 5.3606 5.2525C5.34368 5.29481 5.33239 5.3343 5.32111 5.37944C5.31265 5.42457 5.30983 5.4697 5.30701 5.51484C5.30701 5.52048 5.30701 5.52612 5.30701 5.52894V12.8125L6.31971 11.7998C6.47768 11.6418 6.65539 11.5092 6.84157 11.3992V6.29623H10.836C11.2591 6.29623 11.6032 5.95207 11.6032 5.52894V1.53456H21.2084V17.4726H8.61309C8.81619 17.8985 9.00237 18.4063 9.12931 19.0072H21.9785C22.4016 19.0072 22.7457 18.663 22.7457 18.2399V0.767274C22.7457 0.34414 22.4016 0 21.9785 0L21.9756 0.00564729Z" fill="#A5A8BA"/>
<path d="M8.17576 22.5869C8.81892 19.6701 7.94445 17.8732 7.29 17.0016L9.40285 14.8887C10.0799 14.2117 10.0799 13.1144 9.40285 12.4402C8.72583 11.7632 7.62851 11.7632 6.95431 12.4402L4.24626 15.1483V10.7251C0.762462 12.9508 1.28151 16.2879 1.28151 16.2879L2.4691 24.0002H11.5157C13.1462 22.1469 13.2957 19.9212 13.2957 19.9212H9.29283C8.99664 21.2555 8.1814 22.5898 8.1814 22.5898L8.17576 22.5869Z" fill="#A5A8BA"/>
</svg>
