<svg width="24" height="25" viewBox="0 0 24 25" fill="none" xmlns="http://www.w3.org/2000/svg">
<path d="M18.1465 11.2438C18.1465 11.5968 18.4317 11.8821 18.7848 11.8821C19.1378 11.8821 19.4231 11.5968 19.4231 11.2438C19.4231 10.8907 19.1378 10.6055 18.7848 10.6055C18.4317 10.6055 18.1465 10.8907 18.1465 11.2438Z" fill="#A5A8BA"/>
<path d="M3.07007 11.2438C3.07007 11.5968 3.35533 11.8821 3.70837 11.8821C4.06142 11.8821 4.34667 11.5968 4.34667 11.2438C4.34667 10.8907 4.06142 10.6055 3.70837 10.6055C3.35533 10.6055 3.07007 10.8907 3.07007 11.2438Z" fill="#A5A8BA"/>
<path d="M11.2465 4.34375C11.5995 4.34375 11.8848 4.05849 11.8848 3.70544C11.8848 3.3524 11.5995 3.06714 11.2465 3.06714C10.8934 3.06714 10.6082 3.3524 10.6082 3.70544C10.6082 4.05849 10.8934 4.34375 11.2465 4.34375Z" fill="#A5A8BA"/>
<path d="M10.6082 18.7821C10.6082 19.1351 10.8934 19.4204 11.2465 19.4204C11.5995 19.4204 11.8848 19.1351 11.8848 18.7821C11.8848 18.4291 11.5995 18.1438 11.2465 18.1438C10.8934 18.1438 10.6082 18.4291 10.6082 18.7821Z" fill="#A5A8BA"/>
<path d="M12.5232 11.2437C12.5232 10.8879 12.3792 10.5687 12.1448 10.3371V8.64253C12.1448 8.14544 11.7437 7.74438 11.2466 7.74438C10.7495 7.74438 10.3485 8.14544 10.3485 8.64253V10.3371C10.1141 10.5687 9.97001 10.8879 9.97001 11.2437C9.97001 11.3567 9.98978 11.464 10.018 11.5714L7.32642 14.263C7.07788 14.5115 7.07788 14.9154 7.32642 15.1668C7.57496 15.4181 7.97885 15.4153 8.23021 15.1668L10.9218 12.4752C11.0263 12.5034 11.1336 12.5232 11.2494 12.5232C11.9555 12.5232 12.526 11.9527 12.526 11.2466L12.5232 11.2437Z" fill="#A5A8BA"/>
<path d="M23.8629 22.4762L19.3976 14.8872C19.0022 14.215 18.0306 14.215 17.6324 14.8872L13.1671 22.4762C12.766 23.1597 13.2575 24.0183 14.0483 24.0183H22.976C23.7669 24.0183 24.2583 23.1597 23.8572 22.4762H23.8629ZM17.9035 17.8358C17.9035 17.4969 18.1775 17.2229 18.5164 17.2229C18.8553 17.2229 19.1293 17.4969 19.1293 17.8358V19.9004C19.1293 20.2393 18.8553 20.5133 18.5164 20.5133C18.1775 20.5133 17.9035 20.2393 17.9035 19.9004V17.8358ZM18.5164 22.2757C18.1266 22.2757 17.8103 21.9594 17.8103 21.5696C17.8103 21.1798 18.1266 20.8635 18.5164 20.8635C18.9062 20.8635 19.2225 21.1798 19.2225 21.5696C19.2225 21.9594 18.9062 22.2757 18.5164 22.2757Z" fill="#A5A8BA"/>
<path d="M11.2466 20.4342C6.1712 20.4342 2.05613 16.3191 2.05613 11.2437C2.05613 6.16838 6.1712 2.05331 11.2466 2.05331C16.3219 2.05331 20.437 6.16838 20.437 11.2437C20.437 12.1645 20.3014 13.0513 20.0472 13.8901C20.1687 14.0144 20.2816 14.1556 20.372 14.3138L21.4029 16.0677C22.0977 14.6047 22.4875 12.9694 22.4875 11.2437C22.4875 5.03299 17.4516 0 11.2437 0C5.03581 0 0 5.03581 0 11.2437C0 17.4516 5.03581 22.4875 11.2437 22.4875C11.4866 22.4875 11.7267 22.4762 11.9639 22.462C12.0148 22.27 12.091 22.0808 12.1955 21.9L13.1812 20.228C12.5571 20.3607 11.9103 20.4342 11.2466 20.4342Z" fill="#A5A8BA"/>
</svg>
