<svg width="16" height="17" viewBox="0 0 16 17" fill="none" xmlns="http://www.w3.org/2000/svg">
<path d="M14.6104 15.3623H11.1134C10.7947 15.3623 10.5149 15.5747 10.4271 15.8811L10.566 15.4256H6.37244V16.3183H15.2947L15.2987 16.2733C15.4274 15.8178 15.0863 15.3643 14.6124 15.3643L14.6104 15.3623Z" fill="white"/>
<path d="M10.1719 6.7699C10.1972 5.16141 8.91371 3.83698 7.30521 3.81172C5.69672 3.78645 4.37229 5.0699 4.34702 6.67839C4.32175 8.28688 5.60521 9.6113 7.21371 9.63657C8.82221 9.66184 10.1466 8.37838 10.1719 6.7699Z" fill="white"/>
<path d="M6.16098 11.7164H7.3314L7.8053 10.4418C6.86568 10.5051 6.15689 10.3254 5.63806 10.0762L6.16302 11.7144L6.16098 11.7164Z" fill="white"/>
<path d="M3.04966 14.1281L2.76165 11.7668C2.74531 11.6299 2.9414 11.587 2.98225 11.7178L3.68901 13.9238C3.84425 14.412 4.29771 14.7409 4.81041 14.7409H8.30536C8.96718 14.7409 9.50031 14.1955 9.48192 13.5275C9.46354 12.8841 8.90181 12.3877 8.25634 12.3877H5.67037L4.7573 9.53216C4.56121 8.91733 3.91165 8.53535 3.29274 8.71919C2.87195 8.84175 2.57577 9.17878 2.48181 9.57301L0 16.2973H5.63156L5.96042 15.4129H4.8145C4.00766 15.4129 3.29886 14.8961 3.05374 14.1281H3.04966Z" fill="white"/>
<path d="M13.2118 6.25996C14.7519 6.25996 16 5.01192 16 3.47178C16 1.93164 14.7519 0.683594 13.2118 0.683594C11.6716 0.683594 10.4236 1.93164 10.4236 3.47178C10.4236 5.01192 11.6716 6.25996 13.2118 6.25996ZM13.2118 1.29025C14.4169 1.29025 15.3954 2.26867 15.3954 3.47382C15.3954 4.67897 14.4169 5.65739 13.2118 5.65739C12.0066 5.65739 11.0282 4.67897 11.0282 3.47382C11.0282 2.26867 12.0066 1.29025 13.2118 1.29025Z" fill="white"/>
<path d="M12.6561 3.29871C12.6377 3.35386 12.6254 3.4131 12.6254 3.47438C12.6254 3.73584 12.797 3.9544 13.0339 4.02997V5.02474C13.0339 5.13708 13.1259 5.229 13.2382 5.229C13.3506 5.229 13.4425 5.13708 13.4425 5.02474V4.01159C13.6488 3.92172 13.7958 3.71541 13.7958 3.47438C13.7958 3.15164 13.5344 2.88815 13.2096 2.88815C13.1483 2.88815 13.0891 2.9004 13.0339 2.91878L12.748 2.63282C12.6438 2.52864 12.4722 2.52864 12.368 2.63282C12.2639 2.73699 12.2639 2.90857 12.368 3.01275L12.654 3.29871H12.6561Z" fill="white"/>
</svg>
