<svg width="24" height="24" viewBox="0 0 24 24" fill="none" xmlns="http://www.w3.org/2000/svg">
<path d="M22.9353 1.99671H20.8624V1.01105C20.8624 0.451859 20.4105 0 19.8513 0C19.2921 0 18.8403 0.451859 18.8403 1.01105V1.99671H15.6291V1.01105C15.6291 0.451859 15.1773 0 14.6181 0C14.0589 0 13.607 0.451859 13.607 1.01105V1.99671H10.3959V1.01105C10.3959 0.451859 9.94404 0 9.38485 0C8.82566 0 8.37379 0.451859 8.37379 1.01105V1.99671H5.16268V1.01105C5.16268 0.451859 4.71081 0 4.15162 0C3.59243 0 3.14055 0.451859 3.14055 1.01105V1.99671H1.0676C0.474516 1.99671 -0.00842285 2.47682 -0.00842285 3.07272V22.506C-0.00842285 23.0991 0.471692 23.582 1.0676 23.582H9.64467C10.379 23.8503 11.1726 24 12.0001 24C12.8275 24 13.6211 23.8531 14.3554 23.582H22.9325C23.5256 23.582 24.0085 23.1019 24.0085 22.506V3.07272C24.0085 2.47964 23.5284 1.99671 22.9325 1.99671H22.9353ZM12.0029 22.0372C9.30859 22.0372 7.12267 19.8541 7.12267 17.157C7.12267 14.4599 9.30577 12.2768 12.0029 12.2768C14.7 12.2768 16.8831 14.4599 16.8831 17.157C16.8831 19.8541 14.7 22.0372 12.0029 22.0372ZM21.8593 21.43H17.3406C18.2782 20.2579 18.8403 18.7752 18.8403 17.157C18.8403 13.3782 15.7788 10.3168 12.0001 10.3168C8.22128 10.3168 5.15985 13.3782 5.15985 17.157C5.15985 18.7752 5.72187 20.2579 6.6595 21.43H2.14079V7.55189H21.8565V21.43H21.8593Z" fill="#A5A8BA"/>
<path d="M13.5562 17.7955C13.6381 17.5978 13.6833 17.3832 13.6833 17.1572C13.6833 16.5162 13.3246 15.9598 12.7993 15.6774V14.5816C12.7993 14.141 12.4435 13.7852 12.0029 13.7852C11.5623 13.7852 11.2065 14.141 11.2065 14.5816V15.6774C10.6812 15.9626 10.3225 16.519 10.3225 17.1572C10.3225 18.0864 11.0737 18.8376 12.0029 18.8376C12.2656 18.8376 12.5141 18.7755 12.7372 18.6654L13.7257 19.6538C13.9601 19.8882 14.3385 19.8882 14.5701 19.6538C14.8045 19.4194 14.8045 19.041 14.5701 18.8094L13.5562 17.7955Z" fill="#A5A8BA"/>
</svg>
