<svg width="24" height="24" viewBox="0 0 24 24" fill="none" xmlns="http://www.w3.org/2000/svg">
<path d="M6.01797 15.4995C5.57775 15.4995 5.21936 15.8579 5.21936 16.2982C5.21936 16.7384 5.57775 17.0968 6.01797 17.0968H11.1228C11.5631 17.0968 11.9214 16.7384 11.9214 16.2982C11.9214 15.8579 11.5631 15.4995 11.1228 15.4995H6.01797Z" fill="#A5A8BA"/>
<path d="M13.3363 12.3021C13.3363 11.8618 12.9779 11.5034 12.5377 11.5034H6.02186C5.58164 11.5034 5.22327 11.8618 5.22327 12.3021C5.22327 12.7423 5.58164 13.1007 6.02186 13.1007H12.5377C12.9779 13.1007 13.3363 12.7423 13.3363 12.3021Z" fill="#A5A8BA"/>
<path d="M15.3123 8.30353C15.3123 7.86329 14.9539 7.50488 14.5137 7.50488H9.55557C9.11535 7.50488 8.75696 7.86329 8.75696 8.30353C8.75696 8.74378 9.11535 9.10219 9.55557 9.10219H14.5137C14.9539 9.10219 15.3123 8.74378 15.3123 8.30353Z" fill="#A5A8BA"/>
<path d="M23.7834 14.2857L19.1328 9.63207C18.9974 9.49661 18.8111 9.42041 18.6192 9.42041C18.4273 9.42041 18.2411 9.49661 18.1056 9.63207L13.4523 14.2857C13.2435 14.4945 13.1814 14.8078 13.2943 15.0787C13.4071 15.3496 13.6724 15.5274 13.9659 15.5274H16.0739V23.1104C16.0739 23.5111 16.3984 23.8385 16.8019 23.8385H20.4366C20.8373 23.8385 21.1646 23.5139 21.1646 23.1104V15.5274H23.2726C23.5661 15.5274 23.8313 15.3496 23.9442 15.0787C24.0571 14.8078 23.995 14.4945 23.7862 14.2857H23.7834Z" fill="#A5A8BA"/>
<path d="M1.80579 7.57807H6.51277C7.01225 7.57807 7.41578 7.17451 7.41578 6.675V1.96776H18.7317V8.01549C19.2594 8.04371 19.7533 8.25819 20.1314 8.63635L20.5377 9.04273V1.06469C20.5377 0.565179 20.1342 0.161621 19.6347 0.161621H6.51277C6.51277 0.161621 6.50712 0.161621 6.50147 0.161621C6.44504 0.161621 6.39143 0.167265 6.33499 0.178553C6.30959 0.184197 6.28702 0.192664 6.26444 0.20113C6.23058 0.209596 6.19953 0.218064 6.16849 0.229353C6.14027 0.240641 6.11769 0.257572 6.09229 0.271682C6.06689 0.285793 6.03868 0.297084 6.01329 0.314016C5.96249 0.347881 5.91734 0.384567 5.87501 0.426898L0.265018 6.03721C0.225511 6.07672 0.194465 6.11905 0.163424 6.16138C0.154958 6.17549 0.146493 6.18678 0.138028 6.20089C0.118274 6.23476 0.0985172 6.26862 0.0815856 6.30531C0.0759417 6.31942 0.0674825 6.33353 0.0618386 6.34764C0.0420851 6.39561 0.0279745 6.44641 0.0166867 6.49721C0.0166867 6.49721 0.0166867 6.49721 0.0166867 6.50003C0.00539903 6.55083 0.00257779 6.60445 -0.000244141 6.65807C-0.000244141 6.66371 -0.000244141 6.66936 -0.000244141 6.675V21.649C-0.000244141 22.1485 0.403287 22.5521 0.902768 22.5521H14.6625V20.7459H1.80579V7.58089V7.57807Z" fill="#A5A8BA"/>
</svg>
