<svg width="24" height="23" viewBox="0 0 24 23" fill="none" xmlns="http://www.w3.org/2000/svg">
<path d="M5.14492 12.0874C5.14492 11.5343 4.69619 11.0856 4.14304 11.0856H2.50615C1.953 11.0856 1.50427 11.5343 1.50427 12.0874V19.1768H5.14774V12.0874H5.14492Z" fill="#A5A8BA"/>
<path d="M3.32171 9.79867C4.15143 9.79867 4.8203 9.12699 4.8203 8.30008C4.8203 7.94449 4.69047 7.62276 4.48445 7.36594L8.37063 2.79962C8.58794 2.92379 8.83629 3 9.10722 3C9.33864 3 9.55596 2.94355 9.75069 2.85042L13.7949 8.3396C13.5465 8.60771 13.3941 8.96047 13.3941 9.35558C13.3941 10.1853 14.0658 10.857 14.8927 10.857C15.7196 10.857 16.3913 10.1853 16.3913 9.35558C16.3913 9.05925 16.3038 8.78833 16.1571 8.55691L19.8005 5.13639C20.0489 5.31701 20.3509 5.42426 20.6782 5.42426C21.508 5.42426 22.1768 4.75257 22.1768 3.92285C22.1768 3.09312 21.5051 2.42426 20.6782 2.42426C19.8513 2.42426 19.1797 3.09594 19.1797 3.92285C19.1797 4.21918 19.2671 4.49012 19.4139 4.72436L15.7704 8.14487C15.5221 7.96424 15.2201 7.857 14.8927 7.857C14.6613 7.857 14.444 7.91345 14.2493 8.00658L10.2051 2.5174C10.4534 2.24929 10.6058 1.89652 10.6058 1.50141C10.6058 0.671686 9.93412 0 9.10722 0C8.28031 0 7.60863 0.671686 7.60863 1.50141C7.60863 1.85701 7.73845 2.17874 7.94447 2.43556L4.0583 7.00188C3.84099 6.8777 3.59264 6.8015 3.32171 6.8015C2.49198 6.8015 1.82312 7.47318 1.82312 8.30291C1.82312 9.13263 2.4948 9.8015 3.32171 9.8015V9.79867Z" fill="#A5A8BA"/>
<path d="M8.28888 4.28406C7.73573 4.28406 7.28699 4.73278 7.28699 5.28594V19.1768H10.9305V5.28594C10.9305 4.73278 10.4817 4.28406 9.92858 4.28406H8.29169H8.28888Z" fill="#A5A8BA"/>
<path d="M14.0744 12.1383C13.5213 12.1383 13.0725 12.587 13.0725 13.1402V19.1769H16.716V13.1402C16.716 12.587 16.2673 12.1383 15.7141 12.1383H14.0772H14.0744Z" fill="#A5A8BA"/>
<path d="M19.8599 6.70557C19.3068 6.70557 18.858 7.15429 18.858 7.70744V19.1769H22.5015V7.70744C22.5015 7.15429 22.0528 6.70557 21.4996 6.70557H19.8627H19.8599Z" fill="#A5A8BA"/>
<path d="M24 20.334H0V22.5833H24V20.334Z" fill="#A5A8BA"/>
</svg>
