<svg width="24" height="24" viewBox="0 0 24 24" fill="none" xmlns="http://www.w3.org/2000/svg">
<path d="M16.5718 1.54108H14.1219C13.8311 0.646354 12.99 0 11.9993 0C11.0086 0 10.1675 0.646354 9.87682 1.54108H7.42688V5.47844H16.5746V1.54108H16.5718Z" fill="#A5A8BA"/>
<path d="M21.2551 2.53223H17.8737V4.21441H20.4139V22.3178H3.58614V4.21441H6.12639V2.53223H2.74503C2.27932 2.53223 1.90393 2.90761 1.90393 3.37332V23.1589C1.90393 23.6246 2.27932 24 2.74503 24H21.2551C21.7208 24 22.0962 23.6246 22.0962 23.1589V3.37332C22.0962 2.90761 21.7208 2.53223 21.2551 2.53223Z" fill="#A5A8BA"/>
<path d="M7.2129 10.6455C7.82708 10.6455 8.32497 10.1476 8.32497 9.53344C8.32497 8.91927 7.82708 8.42139 7.2129 8.42139C6.59872 8.42139 6.10083 8.91927 6.10083 9.53344C6.10083 10.1476 6.59872 10.6455 7.2129 10.6455Z" fill="#A5A8BA"/>
<path d="M9.66003 9.53438C9.66003 9.9634 10.01 10.3134 10.439 10.3134H17.1171C17.5461 10.3134 17.8961 9.9634 17.8961 9.53438C17.8961 9.10536 17.5461 8.75537 17.1171 8.75537H10.439C10.01 8.75537 9.66003 9.10536 9.66003 9.53438Z" fill="#A5A8BA"/>
<path d="M7.2129 15.2104C7.82708 15.2104 8.32497 14.7126 8.32497 14.0984C8.32497 13.4842 7.82708 12.9863 7.2129 12.9863C6.59872 12.9863 6.10083 13.4842 6.10083 14.0984C6.10083 14.7126 6.59872 15.2104 7.2129 15.2104Z" fill="#A5A8BA"/>
<path d="M17.1204 13.3184H10.4423C10.0133 13.3184 9.66333 13.6683 9.66333 14.0974C9.66333 14.5264 10.0133 14.8764 10.4423 14.8764H17.1204C17.5494 14.8764 17.8994 14.5264 17.8994 14.0974C17.8994 13.6683 17.5494 13.3184 17.1204 13.3184Z" fill="#A5A8BA"/>
<path d="M7.2129 19.7739C7.82708 19.7739 8.32497 19.276 8.32497 18.6619C8.32497 18.0477 7.82708 17.5498 7.2129 17.5498C6.59872 17.5498 6.10083 18.0477 6.10083 18.6619C6.10083 19.276 6.59872 19.7739 7.2129 19.7739Z" fill="#A5A8BA"/>
<path d="M17.1204 17.8833H10.4423C10.0133 17.8833 9.66333 18.2333 9.66333 18.6623C9.66333 19.0913 10.0133 19.4413 10.4423 19.4413H17.1204C17.5494 19.4413 17.8994 19.0913 17.8994 18.6623C17.8994 18.2333 17.5494 17.8833 17.1204 17.8833Z" fill="#A5A8BA"/>
</svg>
