<svg width="18" height="13" viewBox="0 0 18 13" fill="none" xmlns="http://www.w3.org/2000/svg">
<path d="M9.6712 7.80584C11.5559 7.80584 13.0901 6.1509 13.0901 4.11825C13.0901 2.0856 11.5559 0.430664 9.6712 0.430664C7.78653 0.430664 6.25232 2.0856 6.25232 4.11825C6.25232 6.1509 7.78653 7.80584 9.6712 7.80584Z" fill="white"/>
<path d="M12.1808 7.5459C11.4916 8.14362 10.6213 8.50382 9.67117 8.50382C8.72105 8.50382 7.85076 8.14362 7.16153 7.5459C5.35669 8.47656 4.12036 10.3749 4.12036 12.5691H15.222C15.222 10.3749 13.9857 8.47656 12.1808 7.5459Z" fill="white"/>
<path d="M1.18128 10.7159L3.69112 9.6069L2.78237 9.14385C3.5129 7.72054 4.53289 6.50442 5.76618 5.55674C5.60524 5.127 5.50785 4.66608 5.48456 4.18672C3.90992 5.27042 2.57408 6.74622 1.64238 8.56125L0.606927 8.03153L1.18146 10.714L1.18128 10.7159Z" fill="white"/>
<path d="M12.9882 1.58503C13.2235 1.96184 13.407 2.38106 13.5241 2.82998C14.7426 2.78553 15.973 2.95299 17.1706 3.33526L17.5612 2.11567C16.0944 1.64561 14.6025 1.47572 13.1512 1.57048C13.0968 1.57403 13.0425 1.57953 12.9902 1.5849L12.9882 1.58503Z" fill="white"/>
</svg>
