<svg width="20" height="20" viewBox="0 0 20 20" fill="none" xmlns="http://www.w3.org/2000/svg">
<path d="M2.36013 0.831951C1.4031 0.500055 0.522025 1.4009 0.887867 2.34963C1.7663 4.62768 2.83467 6.88688 3.33851 7.92301C3.5466 8.35088 3.9131 8.67726 4.35696 8.84163L7.48346 9.99959L4.35696 11.1576C3.9131 11.322 3.5466 11.6483 3.33851 12.0762C2.83467 13.1123 1.7663 15.3716 0.887867 17.6496C0.522025 18.5983 1.4031 19.4992 2.36013 19.1673C5.576 18.052 12.3604 15.4176 18.2008 11.2849C19.0935 10.6531 19.0935 9.34605 18.2008 8.71434C12.3604 4.58159 5.57596 1.9472 2.36013 0.831951Z" fill="white"/>
</svg>
