<svg width="16" height="16" viewBox="0 0 16 16" fill="none" xmlns="http://www.w3.org/2000/svg">
<path d="M15.1457 8.20604H14.267V0.598376C14.267 0.267198 13.9998 0 13.6686 0H2.32953C1.99835 0 1.73115 0.267198 1.73115 0.598376V8.20604H0.852406C0.381984 8.20604 0 8.58802 0 9.05845V14.3347C0 14.8051 0.381984 15.1871 0.852406 15.1871H15.1476C15.618 15.1871 16 14.8051 16 14.3347V9.05845C16 8.58802 15.618 8.20604 15.1476 8.20604H15.1457ZM13.0683 8.20604H11.3202C11.0154 8.20604 10.7332 8.36787 10.5807 8.63319L9.845 9.90709C9.69258 10.1705 9.41033 10.3342 9.10549 10.3342H6.88698C6.58215 10.3342 6.29989 10.1724 6.14748 9.90709L5.41174 8.63319C5.25932 8.36975 4.97707 8.20604 4.67223 8.20604H2.92414V1.19675H13.0646V8.20604H13.0683Z" fill="white"/>
<path d="M11.3055 3.9459L10.2404 2.88086L7.19774 5.92543L5.75449 4.48029L4.68945 5.54533L7.19774 8.05362L11.3055 3.9459Z" fill="white"/>
</svg>
