<svg width="17" height="16" viewBox="0 0 17 16" fill="none" xmlns="http://www.w3.org/2000/svg">
<path d="M8.05047 11.2394C9.93514 11.2394 11.4694 9.5845 11.4694 7.55185C11.4694 5.5192 9.93514 3.86426 8.05047 3.86426C6.1658 3.86426 4.63159 5.5192 4.63159 7.55185C4.63159 9.5845 6.1658 11.2394 8.05047 11.2394Z" fill="white"/>
<path d="M10.5605 10.9766C9.87123 11.5743 9.00093 11.9345 8.05081 11.9345C7.10069 11.9345 6.23039 11.5743 5.54117 10.9766C3.73633 11.9072 2.5 13.8055 2.5 15.9998H13.6016C13.6016 13.8055 12.3653 11.9072 10.5605 10.9766Z" fill="white"/>
<path d="M15.7353 0L13.3405 1.33951L14.2887 1.71529C13.6948 3.20084 12.7934 4.50726 11.6544 5.56642C11.855 5.97918 11.9951 6.42893 12.0633 6.904C13.5294 5.6774 14.7209 4.08282 15.4783 2.18841L16.5588 2.61868L15.7353 0.001937V0Z" fill="white"/>
<path d="M4.52865 9.69969C4.31838 9.30834 4.16262 8.87806 4.07501 8.42246C2.8562 8.38742 1.63934 8.14015 0.469215 7.68066L0 8.87222C1.43297 9.43684 2.91072 9.70358 4.3651 9.70358C4.41962 9.70358 4.47414 9.70163 4.52671 9.69969H4.52865Z" fill="white"/>
</svg>
