<svg width="23" height="24" viewBox="0 0 23 24" fill="none" xmlns="http://www.w3.org/2000/svg">
<path d="M11.1802 7.63879C6.66243 7.63879 2.99963 11.3016 2.99963 15.8194C2.99963 20.3372 6.66243 24 11.1802 24C15.698 24 19.3608 20.3372 19.3608 15.8194C19.3608 11.3016 15.698 7.63879 11.1802 7.63879ZM11.1802 21.4716C8.05925 21.4716 5.52803 18.9404 5.52803 15.8194C5.52803 12.6984 8.05925 10.1672 11.1802 10.1672C14.3012 10.1672 16.8324 12.6984 16.8324 15.8194C16.8324 18.9404 14.3012 21.4716 11.1802 21.4716Z" fill="#A5A8BA"/>
<path d="M11.1803 6.51852C11.2141 6.51852 11.2451 6.51852 11.279 6.51852L7.38201 0H0L5.19789 8.697C6.81482 7.33686 8.90018 6.51569 11.1803 6.51569V6.51852Z" fill="#A5A8BA"/>
<path d="M17.1626 8.69981L22.3605 0.00280762H14.9785L11.8152 5.29663L12.611 6.62855C14.3295 6.89381 15.89 7.63032 17.1626 8.69981Z" fill="#A5A8BA"/>
<path d="M14.2393 14.3295H12.3797L11.804 12.5601C11.7165 12.2892 11.4654 12.1086 11.1804 12.1086C10.8954 12.1086 10.6442 12.2921 10.5567 12.5601L9.98108 14.3295H8.12146C7.83645 14.3295 7.58532 14.5129 7.49784 14.781C7.41036 15.0519 7.50629 15.3453 7.73486 15.5118L9.24175 16.6067L8.66608 18.376C8.5786 18.6469 8.67455 18.9404 8.90312 19.1069C9.13169 19.2734 9.44492 19.2734 9.67349 19.1069L11.1804 18.012L12.6844 19.1069C12.8001 19.1915 12.9356 19.231 13.0682 19.231C13.2008 19.231 13.3391 19.1887 13.452 19.1069C13.6805 18.9404 13.7765 18.6441 13.689 18.376L13.1133 16.6067L14.6202 15.5118C14.8488 15.3453 14.9447 15.049 14.8573 14.781C14.7698 14.5101 14.5186 14.3295 14.2336 14.3295H14.2393Z" fill="#A5A8BA"/>
</svg>
