<svg width="25" height="23" viewBox="0 0 25 23" fill="none" xmlns="http://www.w3.org/2000/svg">
<path d="M19.0543 9.93077C19.0543 8.9343 18.2469 8.12695 17.2505 8.12695C16.254 8.12695 15.4467 8.9343 15.4467 9.93077C15.4467 10.9272 16.254 11.7346 17.2505 11.7346C18.2469 11.7346 19.0543 10.9272 19.0543 9.93077Z" fill="#A5A8BA"/>
<path d="M12.9878 5.66821L14.4275 7.10788C15.9829 5.55248 18.515 5.55248 20.0676 7.10788L21.5072 5.66821C19.1586 3.31958 15.3336 3.31958 12.985 5.66821H12.9878Z" fill="#A5A8BA"/>
<path d="M10.2215 2.89903L11.6611 4.33871C14.7437 1.25614 19.7571 1.25614 22.8397 4.33871L24.2793 2.89903C20.4035 -0.976761 14.0944 -0.976761 10.2186 2.89903H10.2215Z" fill="#A5A8BA"/>
<path d="M20.4656 9.93095C20.4656 10.7665 20.141 11.5287 19.6159 12.1017V14.0947H1.98713V3.1589H8.48535L8.22848 2.90201L9.22777 1.90272C9.38585 1.74464 9.54676 1.59503 9.71049 1.44824H1.13462C0.663198 1.44824 0.279297 1.83214 0.279297 2.30356V17.5809C0.279297 18.0523 0.663198 18.4363 1.13462 18.4363H6.86503V21.1744H4.61522C4.1438 21.1744 3.75988 21.5583 3.75988 22.0298C3.75988 22.5012 4.1438 22.8851 4.61522 22.8851H16.9935C17.4649 22.8851 17.8488 22.5012 17.8488 22.0298C17.8488 21.5583 17.4649 21.1744 16.9935 21.1744H14.7437V18.4363H20.4741C20.9455 18.4363 21.3294 18.0523 21.3294 17.5809V7.8505L20.2934 8.88649C20.4063 9.21394 20.4713 9.56398 20.4713 9.92813L20.4656 9.93095ZM13.0274 21.1744H8.57005V18.4363H13.0274V21.1744Z" fill="#A5A8BA"/>
<path d="M9.12327 8.01123H4.72243C4.30747 8.01123 3.97437 8.34714 3.97437 8.75928C3.97437 9.17142 4.31029 9.50735 4.72243 9.50735H9.12327C9.53823 9.50735 9.87134 9.17142 9.87134 8.75928C9.87134 8.34714 9.53541 8.01123 9.12327 8.01123Z" fill="#A5A8BA"/>
<path d="M3.97437 11.2915C3.97437 11.7065 4.31029 12.0396 4.72243 12.0396H12.028C12.443 12.0396 12.7761 11.7037 12.7761 11.2915C12.7761 10.8794 12.4401 10.5435 12.028 10.5435H4.72243C4.30747 10.5435 3.97437 10.8794 3.97437 11.2915Z" fill="#A5A8BA"/>
</svg>
