<svg width="16" height="16" viewBox="0 0 16 16" fill="none" xmlns="http://www.w3.org/2000/svg">
<path d="M15.1457 8.95872H14.267V0.598376C14.267 0.267198 13.9998 0 13.6686 0H2.32953C1.99835 0 1.73115 0.267198 1.73115 0.598376V8.95872H0.852405C0.381983 8.95872 0 9.34071 0 9.81113V15.0874C0 15.5578 0.381983 15.9398 0.852405 15.9398H15.1476C15.618 15.9398 16 15.5578 16 15.0874V9.81113C16 9.34071 15.618 8.95872 15.1476 8.95872H15.1457ZM13.0683 8.95872H11.3202C11.0154 8.95872 10.7331 9.12055 10.5807 9.38587L9.84499 10.6598C9.69257 10.9232 9.41032 11.0869 9.10549 11.0869H6.88698C6.58214 11.0869 6.29989 10.9251 6.14747 10.6598L5.41173 9.38587C5.25932 9.12243 4.97706 8.95872 4.67223 8.95872H2.92414V1.19675H13.0646V8.95872H13.0683Z" fill="white"/>
<path d="M9.0997 7.22387L9.98975 8.1139C10.2381 8.36228 10.6427 8.36228 10.893 8.1139C11.1432 7.86552 11.1413 7.46096 10.893 7.21069L10.0029 6.32066C10.654 5.26127 10.5241 3.85752 9.60588 2.94114C8.53332 1.86858 6.79276 1.86858 5.72019 2.94114C4.64763 4.0137 4.64763 5.75427 5.72019 6.82683C6.63846 7.7451 8.04031 7.87493 9.0997 7.22387ZM6.39948 3.62231C7.09759 2.9242 8.22848 2.9242 8.92471 3.62231C9.62282 4.32042 9.62282 5.45131 8.92471 6.14753C8.2266 6.84564 7.09571 6.84564 6.39948 6.14753C5.70137 5.44943 5.70137 4.31854 6.39948 3.62231Z" fill="white"/>
</svg>
