<svg width="64" height="64" viewBox="0 0 64 64" fill="none" xmlns="http://www.w3.org/2000/svg">
<path d="M60.5828 36.0146H57.0678V2.57319C57.0678 1.24848 55.999 0.179688 54.6743 0.179688H9.3181C7.99339 0.179688 6.9246 1.24848 6.9246 2.57319V36.0146H3.40962C1.52793 36.0146 0 37.5425 0 39.4242V60.5292C0 62.4109 1.52793 63.9388 3.40962 63.9388H60.5904C62.4721 63.9388 64 62.4109 64 60.5292V39.4242C64 37.5425 62.4721 36.0146 60.5904 36.0146H60.5828ZM52.2733 36.0146H45.281C44.0616 36.0146 42.9326 36.6619 42.3229 37.7231L39.38 42.8188C38.7703 43.8725 37.6413 44.5273 36.422 44.5273H27.5479C26.3286 44.5273 25.1996 43.88 24.5899 42.8188L21.6469 37.7231C21.0373 36.6694 19.9083 36.0146 18.6889 36.0146H11.6966V4.96669H52.2583V36.0146H52.2733Z" fill="#BBC0CA"/>
<path d="M36.3998 29.0761L39.96 32.6363C40.9535 33.6298 42.5717 33.6298 43.5728 32.6363C44.5739 31.6427 44.5663 30.0245 43.5728 29.0234L40.0127 25.4633C42.6169 21.2257 42.0976 15.6108 38.4245 11.9452C34.1342 7.65498 27.172 7.65498 22.8818 11.9452C18.5915 16.2355 18.5915 23.1977 22.8818 27.488C26.5548 31.1611 32.1622 31.6804 36.3998 29.0761ZM25.5989 14.6699C28.3913 11.8775 32.9149 11.8775 35.6998 14.6699C38.4922 17.4623 38.4922 21.9859 35.6998 24.7708C32.9074 27.5632 28.3838 27.5632 25.5989 24.7708C22.8065 21.9784 22.8065 17.4548 25.5989 14.6699Z" fill="#BBC0CA"/>
</svg>
