<svg width="60" height="64" viewBox="0 0 60 64" fill="none" xmlns="http://www.w3.org/2000/svg">
<path d="M47.1983 20.558V7.33945H55.5088C57.5338 7.33945 59.1748 5.69841 59.1748 3.67347C59.1748 1.64101 57.5338 0 55.5088 0H3.66596C1.64102 0 0 1.64102 0 3.66596C0 5.69842 1.64102 7.33945 3.66596 7.33945H11.9765V20.558C11.9765 25.2251 14.3402 29.4782 18.0588 32C14.3402 34.5217 11.9765 38.7749 11.9765 43.442V56.6606H5.93932V11.4947H2.03247V56.9315H2.28841C0.948489 57.4735 0 58.7909 0 60.3265C0 62.359 1.64102 64 3.66596 64H55.5088C57.5338 64 59.1748 62.359 59.1748 60.334C59.1748 58.7909 58.2263 57.4735 56.8864 56.9315H57.1499V11.4947H53.243V56.6606H47.2059V43.442C47.2059 38.7749 44.8422 34.5217 41.1235 32C44.8422 29.4782 47.2059 25.2251 47.2059 20.558H47.1983ZM43.2915 43.442V56.6606H15.8758V43.442C15.8758 38.9932 18.8793 35.0562 23.1776 33.8819V30.1181C18.8793 28.9438 15.8758 25.0144 15.8758 20.558V7.33945H43.2915V20.558C43.2915 25.0068 40.2879 28.9438 35.9897 30.1181V33.8819C40.2879 35.0562 43.2915 38.9856 43.2915 43.442Z" fill="#0022EE"/>
<path d="M47.1983 20.558V7.33945H55.5088C57.5338 7.33945 59.1748 5.69841 59.1748 3.67347C59.1748 1.64101 57.5338 0 55.5088 0H3.66596C1.64102 0 0 1.64102 0 3.66596C0 5.69842 1.64102 7.33945 3.66596 7.33945H11.9765V20.558C11.9765 25.2251 14.3402 29.4782 18.0588 32C14.3402 34.5217 11.9765 38.7749 11.9765 43.442V56.6606H5.93932V11.4947H2.03247V56.9315H2.28841C0.948489 57.4735 0 58.7909 0 60.3265C0 62.359 1.64102 64 3.66596 64H55.5088C57.5338 64 59.1748 62.359 59.1748 60.334C59.1748 58.7909 58.2263 57.4735 56.8864 56.9315H57.1499V11.4947H53.243V56.6606H47.2059V43.442C47.2059 38.7749 44.8422 34.5217 41.1235 32C44.8422 29.4782 47.2059 25.2251 47.2059 20.558H47.1983ZM43.2915 43.442V56.6606H15.8758V43.442C15.8758 38.9932 18.8793 35.0562 23.1776 33.8819V30.1181C18.8793 28.9438 15.8758 25.0144 15.8758 20.558V7.33945H43.2915V20.558C43.2915 25.0068 40.2879 28.9438 35.9897 30.1181V33.8819C40.2879 35.0562 43.2915 38.9856 43.2915 43.442Z" fill="white" fill-opacity="0.2"/>
<path d="M20.0918 53.4152H39.0765C39.0765 48.176 34.8309 43.9229 29.5842 43.9229C24.3374 43.9229 20.0918 48.1685 20.0918 53.4152Z" fill="#0022EE"/>
<path d="M20.0918 53.4152H39.0765C39.0765 48.176 34.8309 43.9229 29.5842 43.9229C24.3374 43.9229 20.0918 48.1685 20.0918 53.4152Z" fill="white" fill-opacity="0.2"/>
<path d="M39.0765 20.4448H20.0918C20.0918 24.7205 24.3374 28.1908 29.5842 28.1908C34.8309 28.1908 39.0765 24.7205 39.0765 20.4448Z" fill="#0022EE"/>
<path d="M39.0765 20.4448H20.0918C20.0918 24.7205 24.3374 28.1908 29.5842 28.1908C34.8309 28.1908 39.0765 24.7205 39.0765 20.4448Z" fill="white" fill-opacity="0.2"/>
</svg>
