<svg width="40" height="40" viewBox="0 0 40 40" fill="none" xmlns="http://www.w3.org/2000/svg">
<path d="M31.6667 13.333V3.33301M26.6667 8.33301H36.6667M36.6667 19.9997V28.6663C36.6667 31.4666 36.6667 32.8667 36.1217 33.9363C35.6423 34.8771 34.8774 35.642 33.9366 36.1214C32.8671 36.6663 31.4669 36.6663 28.6667 36.6663H11.3333C8.53308 36.6663 7.13295 36.6663 6.06339 36.1214C5.12258 35.642 4.35768 34.8771 3.87831 33.9363C3.33334 32.8667 3.33334 31.4666 3.33334 28.6663V11.333C3.33334 8.53275 3.33334 7.13261 3.87831 6.06306C4.35768 5.12224 5.12258 4.35734 6.06339 3.87798C7.13295 3.33301 8.53308 3.33301 11.3333 3.33301H20M3.57624 33.2102C4.35815 30.3973 6.938 28.333 10 28.333H21.6667C23.2155 28.333 23.99 28.333 24.6339 28.4611C27.2786 28.9872 29.3459 31.0545 29.8719 33.6991C30 34.3431 30 35.1175 30 36.6663M23.3333 15.833C23.3333 19.5149 20.3486 22.4997 16.6667 22.4997C12.9848 22.4997 10 19.5149 10 15.833C10 12.1511 12.9848 9.16634 16.6667 9.16634C20.3486 9.16634 23.3333 12.1511 23.3333 15.833Z" stroke="white" stroke-width="2" stroke-linecap="round" stroke-linejoin="round"/>
</svg>
