<svg width="24" height="24" viewBox="0 0 24 24" fill="none" xmlns="http://www.w3.org/2000/svg">
<path d="M12.7077 3.08079C12.2426 2.96786 11.7572 2.96786 11.2921 3.08079C10.7605 3.20985 10.2912 3.52879 9.75697 3.89186L4.75577 7.28024C4.32937 7.56841 3.95389 7.82215 3.67236 8.16837C3.42544 8.47201 3.24031 8.82104 3.12743 9.19578C2.99871 9.62305 2.99924 10.0762 2.99984 10.5909L2.99992 16.8389C2.9999 17.366 2.99988 17.8208 3.03049 18.1954C3.06279 18.5907 3.1341 18.9839 3.3269 19.3623C3.61452 19.9268 4.07346 20.3857 4.63795 20.6733C5.01633 20.8661 5.40954 20.9375 5.80489 20.9698C6.17946 21.0004 6.63421 21.0003 7.16135 21.0003H16.8385C17.3656 21.0003 17.8204 21.0004 18.1949 20.9698C18.5903 20.9375 18.9835 20.8661 19.3619 20.6733C19.9264 20.3857 20.3853 19.9268 20.6729 19.3623C20.8657 18.9839 20.937 18.5907 20.9693 18.1954C21 17.8208 20.9999 17.366 20.9999 16.8389L21 10.5909C21.0006 10.0762 21.0011 9.62305 20.8724 9.19578C20.7595 8.82104 20.5744 8.47201 20.3275 8.16837C20.0459 7.82215 19.6705 7.56841 19.2441 7.28024L14.2429 3.89186C13.7086 3.52879 13.2393 3.20985 12.7077 3.08079Z" fill="#0022EE"/>
</svg>
